<svg width="38" height="41" viewBox="0 0 38 41" fill="none" xmlns="http://www.w3.org/2000/svg">
<g filter="url(#filter0_d)">
<path d="M9.82288 4.16131C10.401 4.21077 10.9627 4.50757 11.5139 5.0472C12.3475 5.86414 14.7048 8.85158 14.887 9.72848C15.0887 10.7028 14.6465 11.4778 14.2536 12.1583C13.8518 12.8598 12.7807 14.1894 13.0601 14.9644C14.645 18.8557 18.3065 22.2509 22.1994 23.8458C22.9583 24.1216 24.2864 23.0498 24.984 22.6451C25.6652 22.2524 26.4345 21.8027 27.407 22.0095C28.2809 22.1939 31.2597 24.6118 32.0753 25.4497C32.6101 25.9983 32.9074 26.5649 32.9537 27.1315C33.0344 29.3545 30.0138 31.8923 29.4641 32.2085C28.7336 32.7347 27.8836 33 26.929 33C25.9535 33 24.866 32.7227 23.6799 32.1696C17.2443 29.4834 7.41329 19.8465 4.81399 13.4609C3.73543 11.0836 3.72796 9.1229 4.79606 7.64941C5.22181 6.95838 7.64932 4.06987 9.82288 4.16131ZM22.4636 8.21474L22.6271 8.23491C25.7538 8.84499 28.1663 11.2658 28.7773 14.4002C28.9133 15.0987 28.4561 15.7777 27.7615 15.9171C27.6779 15.9321 27.5957 15.9396 27.5135 15.9396C26.901 15.9396 26.3692 15.5004 26.2527 14.8963C25.8434 12.7963 24.2285 11.1774 22.1372 10.7697C21.4425 10.6333 20.9854 9.95273 21.1213 9.25571C21.2573 8.55869 21.9131 8.103 22.6271 8.23491L22.4636 8.21474ZM22.3667 3L22.5338 3.01189C28.6003 3.68793 33.3104 8.41119 33.9916 14.497C34.0305 14.8403 33.9334 15.176 33.7197 15.4459C33.5046 15.7157 33.1999 15.8851 32.8578 15.9225C32.8085 15.9285 32.7607 15.9315 32.7114 15.9315C32.0571 15.9315 31.5088 15.4384 31.4356 14.7848C30.8889 9.90716 27.1094 6.11926 22.247 5.57663C21.5419 5.49719 21.0324 4.85863 21.1116 4.15261C21.149 3.80335 21.3208 3.49157 21.5956 3.27571C21.863 3.06286 22.1991 2.96393 22.5338 3.01189L22.3667 3Z" fill="#200E32"/>
</g>
<defs>
<filter id="filter0_d" x="-3" y="0" width="44" height="44" filterUnits="userSpaceOnUse" color-interpolation-filters="sRGB">
<feFlood flood-opacity="0" result="BackgroundImageFix"/>
<feColorMatrix in="SourceAlpha" type="matrix" values="0 0 0 0 0 0 0 0 0 0 0 0 0 0 0 0 0 0 127 0"/>
<feOffset dy="4"/>
<feGaussianBlur stdDeviation="2"/>
<feColorMatrix type="matrix" values="0 0 0 0 0 0 0 0 0 0 0 0 0 0 0 0 0 0 0.25 0"/>
<feBlend mode="normal" in2="BackgroundImageFix" result="effect1_dropShadow"/>
<feBlend mode="normal" in="SourceGraphic" in2="effect1_dropShadow" result="shape"/>
</filter>
</defs>
</svg>
