<svg width="30" height="30" viewBox="0 0 30 30" fill="none" xmlns="http://www.w3.org/2000/svg">
<path d="M5.82288 1.16131C6.401 1.21077 6.96269 1.50757 7.51392 2.0472C8.34749 2.86414 10.7048 5.85158 10.887 6.72848C11.0887 7.70281 10.6465 8.47778 10.2536 9.15831C9.8518 9.85983 8.78071 11.1894 9.06006 11.9644C10.645 15.8557 14.3065 19.2509 18.1994 20.8458C18.9583 21.1216 20.2864 20.0498 20.984 19.6451C21.6652 19.2524 22.4345 18.8027 23.407 19.0095C24.2809 19.1939 27.2597 21.6118 28.0753 22.4497C28.6101 22.9983 28.9074 23.5649 28.9537 24.1315C29.0344 26.3545 26.0138 28.8923 25.4641 29.2085C24.7336 29.7347 23.8836 30 22.929 30C21.9535 30 20.866 29.7227 19.6799 29.1696C13.2443 26.4834 3.41329 16.8465 0.813991 10.4609C-0.26457 8.08355 -0.27204 6.1229 0.796065 4.64941C1.22181 3.95838 3.64932 1.06987 5.82288 1.16131ZM18.4636 5.21474L18.6271 5.23491C21.7538 5.84499 24.1663 8.26583 24.7773 11.4002C24.9133 12.0987 24.4562 12.7777 23.7615 12.9171C23.6779 12.9321 23.5957 12.9396 23.5135 12.9396C22.901 12.9396 22.3692 12.5004 22.2527 11.8963C21.8434 9.79628 20.2285 8.17739 18.1372 7.76967C17.4425 7.63326 16.9854 6.95273 17.1213 6.25571C17.2573 5.55869 17.9131 5.103 18.6271 5.23491L18.4636 5.21474ZM18.3667 3.59761e-08L18.5338 0.0118946C24.6003 0.68793 29.3104 5.41119 29.9916 11.497C30.0305 11.8403 29.9334 12.176 29.7197 12.4459C29.5046 12.7157 29.1999 12.8851 28.8578 12.9225C28.8085 12.9285 28.7607 12.9315 28.7114 12.9315C28.0571 12.9315 27.5088 12.4384 27.4356 11.7848C26.8889 6.90716 23.1094 3.11926 18.247 2.57663C17.5419 2.49719 17.0324 1.85863 17.1116 1.15261C17.149 0.803351 17.3208 0.491565 17.5956 0.275713C17.863 0.0628596 18.1991 -0.0360724 18.5338 0.0118946L18.3667 3.59761e-08Z" fill="#200E32"/>
</svg>
