<svg width="36" height="36" viewBox="0 0 36 36" fill="none" xmlns="http://www.w3.org/2000/svg">
<path d="M27.25 21.5695C26.2424 21.3528 25.4454 21.8206 24.7396 22.2291C24.0168 22.6501 22.6425 23.765 21.8547 23.4797C17.8214 21.819 14.028 18.2888 12.3858 14.2393C12.0964 13.4347 13.2061 12.0516 13.624 11.3203C14.0295 10.6124 14.4876 9.80778 14.2787 8.79268C14.0899 7.88049 11.6476 4.77281 10.784 3.923C10.2144 3.36165 9.63092 3.05291 9.03196 3.00301C6.78005 2.90634 4.26503 5.9111 3.82393 6.62993C2.71887 8.16272 2.72506 10.2023 3.84251 12.6753C6.53551 19.3179 16.721 29.3426 23.3885 32.1369C24.6189 32.7123 25.7441 33.0007 26.7547 33.0007C27.7437 33.0007 28.6244 32.7247 29.3812 32.1774C29.9523 31.8484 33.0802 29.2085 32.9982 26.8961C32.9486 26.3067 32.6407 25.7173 32.0866 25.1466C31.2431 24.2749 28.1554 21.7598 27.25 21.5695Z" fill="#200E32"/>
</svg>
