<svg width="21" height="23" viewBox="0 0 21 23" fill="none" xmlns="http://www.w3.org/2000/svg">
<circle cx="11.5" cy="13.5" r="9" stroke="url(#paint0_linear)"/>
<path d="M11.2271 19.12C10.1471 19.12 9.18044 18.8867 8.32711 18.42C7.48711 17.9533 6.82711 17.3133 6.34711 16.5C5.86711 15.6733 5.62711 14.74 5.62711 13.7C5.62711 12.66 5.86711 11.7333 6.34711 10.92C6.82711 10.0933 7.48711 9.45333 8.32711 9C9.18044 8.53333 10.1471 8.3 11.2271 8.3C12.1871 8.3 13.0404 8.49333 13.7871 8.88C14.5471 9.26667 15.1338 9.82667 15.5471 10.56L14.0871 11.5C13.7538 10.9933 13.3404 10.6133 12.8471 10.36C12.3538 10.1067 11.8071 9.98 11.2071 9.98C10.5138 9.98 9.88711 10.1333 9.32711 10.44C8.78044 10.7467 8.34711 11.1867 8.02711 11.76C7.72044 12.32 7.56711 12.9667 7.56711 13.7C7.56711 14.4467 7.72044 15.1067 8.02711 15.68C8.34711 16.24 8.78044 16.6733 9.32711 16.98C9.88711 17.2867 10.5138 17.44 11.2071 17.44C11.8071 17.44 12.3538 17.3133 12.8471 17.06C13.3404 16.8067 13.7538 16.4267 14.0871 15.92L15.5471 16.84C15.1338 17.5733 14.5471 18.14 13.7871 18.54C13.0404 18.9267 12.1871 19.12 11.2271 19.12Z" fill="url(#paint1_linear)"/>
<defs>
<linearGradient id="paint0_linear" x1="6.5" y1="-1" x2="18" y2="26.5" gradientUnits="userSpaceOnUse">
<stop offset="0.14375" stop-color="#CE1BDE" stop-opacity="0.92"/>
<stop offset="0.872917" stop-color="#2D19A7"/>
</linearGradient>
<linearGradient id="paint1_linear" x1="2" y1="-4.5" x2="23" y2="49" gradientUnits="userSpaceOnUse">
<stop offset="0.14375" stop-color="#2D19A7"/>
<stop offset="0.461458" stop-color="#CE1BDE" stop-opacity="0.92"/>
</linearGradient>
</defs>
</svg>
