<svg width="36" height="36" viewBox="0 0 36 36" fill="none" xmlns="http://www.w3.org/2000/svg">
<path d="M25.409 4.5C27.4205 4.5 29.3555 5.295 30.779 6.7215C32.204 8.145 33.0005 10.065 33.0005 12.075V23.925C33.0005 28.11 29.5955 31.5 25.409 31.5H10.5905C6.40399 31.5 3.00049 28.11 3.00049 23.925V12.075C3.00049 7.89 6.38899 4.5 10.5905 4.5H25.409ZM27.1055 12.3C26.7905 12.2835 26.4905 12.39 26.264 12.6L19.5005 18C18.6305 18.7215 17.384 18.7215 16.5005 18L9.75049 12.6C9.28399 12.255 8.63899 12.3 8.25049 12.705C7.84549 13.11 7.80049 13.755 8.14399 14.205L8.34049 14.4L15.1655 19.725C16.0055 20.385 17.024 20.745 18.0905 20.745C19.154 20.745 20.1905 20.385 21.029 19.725L27.7955 14.31L27.9155 14.19C28.274 13.755 28.274 13.125 27.899 12.69C27.6905 12.4665 27.404 12.33 27.1055 12.3Z" fill="#200E32"/>
</svg>
