<svg width="276" height="113" viewBox="0 0 276 113" fill="none" xmlns="http://www.w3.org/2000/svg">
<g filter="url(#filter0_d)">
<path d="M257.36 78L244.56 60C243.12 60.16 241.627 60.24 240.08 60.24H225.04V78H219.12V22H240.08C247.227 22 252.827 23.7067 256.88 27.12C260.933 30.5333 262.96 35.2267 262.96 41.2C262.96 45.5733 261.84 49.28 259.6 52.32C257.413 55.3067 254.267 57.4667 250.16 58.8L263.84 78H257.36ZM239.92 55.2C245.467 55.2 249.707 53.9733 252.64 51.52C255.573 49.0667 257.04 45.6267 257.04 41.2C257.04 36.6667 255.573 33.2 252.64 30.8C249.707 28.3467 245.467 27.12 239.92 27.12H225.04V55.2H239.92Z" fill="url(#paint0_linear)"/>
<path d="M257.36 78L256.953 78.2898L257.102 78.5H257.36V78ZM244.56 60L244.967 59.7102L244.797 59.4706L244.505 59.5031L244.56 60ZM225.04 60.24V59.74H224.54V60.24H225.04ZM225.04 78V78.5H225.54V78H225.04ZM219.12 78H218.62V78.5H219.12V78ZM219.12 22V21.5H218.62V22H219.12ZM256.88 27.12L256.558 27.5025L256.558 27.5025L256.88 27.12ZM259.6 52.32L259.197 52.0234L259.197 52.0246L259.6 52.32ZM250.16 58.8L250.006 58.3244L249.357 58.5349L249.753 59.0901L250.16 58.8ZM263.84 78V78.5H264.81L264.247 77.7099L263.84 78ZM252.64 51.52L252.961 51.9035L252.961 51.9035L252.64 51.52ZM252.64 30.8L252.319 31.1836L252.323 31.187L252.64 30.8ZM225.04 27.12V26.62H224.54V27.12H225.04ZM225.04 55.2H224.54V55.7H225.04V55.2ZM257.767 77.7102L244.967 59.7102L244.153 60.2898L256.953 78.2898L257.767 77.7102ZM244.505 59.5031C243.084 59.6609 241.609 59.74 240.08 59.74V60.74C241.644 60.74 243.156 60.6591 244.615 60.4969L244.505 59.5031ZM240.08 59.74H225.04V60.74H240.08V59.74ZM224.54 60.24V78H225.54V60.24H224.54ZM225.04 77.5H219.12V78.5H225.04V77.5ZM219.62 78V22H218.62V78H219.62ZM219.12 22.5H240.08V21.5H219.12V22.5ZM240.08 22.5C247.15 22.5 252.622 24.1879 256.558 27.5025L257.202 26.7375C253.031 23.2254 247.303 21.5 240.08 21.5V22.5ZM256.558 27.5025C260.483 30.808 262.46 35.3531 262.46 41.2H263.46C263.46 35.1002 261.383 30.2587 257.202 26.7375L256.558 27.5025ZM262.46 41.2C262.46 45.4841 261.365 49.0824 259.197 52.0234L260.003 52.6166C262.316 49.4776 263.46 45.6626 263.46 41.2H262.46ZM259.197 52.0246C257.082 54.9131 254.03 57.018 250.006 58.3244L250.314 59.2756C254.504 57.9154 257.745 55.7002 260.003 52.6154L259.197 52.0246ZM249.753 59.0901L263.433 78.2901L264.247 77.7099L250.567 58.5099L249.753 59.0901ZM263.84 77.5H257.36V78.5H263.84V77.5ZM239.92 55.7C245.532 55.7 249.905 54.4596 252.961 51.9035L252.319 51.1365C249.509 53.487 245.401 54.7 239.92 54.7V55.7ZM252.961 51.9035C256.026 49.3397 257.54 45.7487 257.54 41.2H256.54C256.54 45.5046 255.12 48.7936 252.319 51.1365L252.961 51.9035ZM257.54 41.2C257.54 36.5493 256.029 32.9269 252.957 30.413L252.323 31.187C255.118 33.4731 256.54 36.784 256.54 41.2H257.54ZM252.961 30.4165C249.905 27.8604 245.532 26.62 239.92 26.62V27.62C245.401 27.62 249.509 28.833 252.319 31.1835L252.961 30.4165ZM239.92 26.62H225.04V27.62H239.92V26.62ZM224.54 27.12V55.2H225.54V27.12H224.54ZM225.04 55.7H239.92V54.7H225.04V55.7Z" fill="#E2DDDD"/>
</g>
<g filter="url(#filter1_d)">
<path d="M118.72 72.88V78H79.12V22H117.52V27.12H85.04V47.04H114V52.08H85.04V72.88H118.72Z" fill="url(#paint1_linear)"/>
<path d="M118.72 72.88H119.22V72.38H118.72V72.88ZM118.72 78V78.5H119.22V78H118.72ZM79.12 78H78.62V78.5H79.12V78ZM79.12 22V21.5H78.62V22H79.12ZM117.52 22H118.02V21.5H117.52V22ZM117.52 27.12V27.62H118.02V27.12H117.52ZM85.04 27.12V26.62H84.54V27.12H85.04ZM85.04 47.04H84.54V47.54H85.04V47.04ZM114 47.04H114.5V46.54H114V47.04ZM114 52.08V52.58H114.5V52.08H114ZM85.04 52.08V51.58H84.54V52.08H85.04ZM85.04 72.88H84.54V73.38H85.04V72.88ZM118.22 72.88V78H119.22V72.88H118.22ZM118.72 77.5H79.12V78.5H118.72V77.5ZM79.62 78V22H78.62V78H79.62ZM79.12 22.5H117.52V21.5H79.12V22.5ZM117.02 22V27.12H118.02V22H117.02ZM117.52 26.62H85.04V27.62H117.52V26.62ZM84.54 27.12V47.04H85.54V27.12H84.54ZM85.04 47.54H114V46.54H85.04V47.54ZM113.5 47.04V52.08H114.5V47.04H113.5ZM114 51.58H85.04V52.58H114V51.58ZM84.54 52.08V72.88H85.54V52.08H84.54ZM85.04 73.38H118.72V72.38H85.04V73.38Z" fill="#E2DDDD"/>
</g>
<g filter="url(#filter2_d)">
<path d="M30.08 22C37.2267 22 42.8267 23.7067 46.88 27.12C50.9333 30.5333 52.96 35.2267 52.96 41.2C52.96 47.1733 50.9333 51.8667 46.88 55.28C42.8267 58.64 37.2267 60.32 30.08 60.32H15.04V78H9.12V22H30.08ZM29.92 55.12C35.4667 55.12 39.7067 53.92 42.64 51.52C45.5733 49.0667 47.04 45.6267 47.04 41.2C47.04 36.6667 45.5733 33.2 42.64 30.8C39.7067 28.3467 35.4667 27.12 29.92 27.12H15.04V55.12H29.92Z" fill="url(#paint2_linear)"/>
<path d="M46.88 27.12L46.5579 27.5025L46.5579 27.5025L46.88 27.12ZM46.88 55.28L47.1991 55.665L47.2021 55.6625L46.88 55.28ZM15.04 60.32V59.82H14.54V60.32H15.04ZM15.04 78V78.5H15.54V78H15.04ZM9.12 78H8.62V78.5H9.12V78ZM9.12 22V21.5H8.62V22H9.12ZM42.64 51.52L42.9566 51.907L42.9608 51.9035L42.64 51.52ZM42.64 30.8L42.3192 31.1836L42.3234 31.187L42.64 30.8ZM15.04 27.12V26.62H14.54V27.12H15.04ZM15.04 55.12H14.54V55.62H15.04V55.12ZM30.08 22.5C37.1501 22.5 42.6219 24.1879 46.5579 27.5025L47.2021 26.7375C43.0314 23.2254 37.3033 21.5 30.08 21.5V22.5ZM46.5579 27.5025C50.4833 30.808 52.46 35.3531 52.46 41.2H53.46C53.46 35.1002 51.3834 30.2587 47.2021 26.7375L46.5579 27.5025ZM52.46 41.2C52.46 47.0469 50.4833 51.592 46.5579 54.8975L47.2021 55.6625C51.3834 52.1413 53.46 47.2998 53.46 41.2H52.46ZM46.5609 54.8951C42.6248 58.1579 37.1518 59.82 30.08 59.82V60.82C37.3016 60.82 43.0285 59.1221 47.1991 55.6649L46.5609 54.8951ZM30.08 59.82H15.04V60.82H30.08V59.82ZM14.54 60.32V78H15.54V60.32H14.54ZM15.04 77.5H9.12V78.5H15.04V77.5ZM9.62 78V22H8.62V78H9.62ZM9.12 22.5H30.08V21.5H9.12V22.5ZM29.92 55.62C35.5302 55.62 39.9007 54.4073 42.9566 51.907L42.3234 51.133C39.5126 53.4327 35.4031 54.62 29.92 54.62V55.62ZM42.9608 51.9035C46.0263 49.3397 47.54 45.7487 47.54 41.2H46.54C46.54 45.5046 45.1204 48.7936 42.3192 51.1365L42.9608 51.9035ZM47.54 41.2C47.54 36.5493 46.0291 32.9269 42.9566 30.413L42.3234 31.187C45.1176 33.4731 46.54 36.784 46.54 41.2H47.54ZM42.9608 30.4165C39.9046 27.8604 35.5324 26.62 29.92 26.62V27.62C35.401 27.62 39.5088 28.833 42.3192 31.1835L42.9608 30.4165ZM29.92 26.62H15.04V27.62H29.92V26.62ZM14.54 27.12V55.12H15.54V27.12H14.54ZM15.04 55.62H29.92V54.62H15.04V55.62Z" fill="#E2DDDD"/>
</g>
<g filter="url(#filter3_d)">
<path d="M165.274 28.0004L165.349 28.0133L165.419 27.9821L166.841 27.3445C167.715 27.3497 169.043 27.482 170.243 27.8605C171.483 28.2517 172.505 28.879 172.837 29.8166C173.23 30.9244 173.836 31.6207 174.422 32.2932C174.562 32.4544 174.701 32.6142 174.836 32.7779C175.53 33.6224 176.175 34.6353 176.436 36.6261C176.656 38.3101 177.723 40.7973 178.945 43.195C180.171 45.6023 181.572 47.9565 182.489 49.3916C182.806 49.9127 183.078 50.3087 183.319 50.6592C183.385 50.7563 183.45 50.8498 183.512 50.9416C183.799 51.3648 184.045 51.7563 184.296 52.2998C184.802 53.3946 185.333 55.1191 186.202 58.946C186.963 62.2962 185.543 65.4846 183.494 68.1243C181.451 70.7569 178.813 72.8023 177.221 73.8499C174.723 75.274 167.571 77.6543 159.088 75.6668C153.773 74.4214 151.184 72.6272 149.823 71.1091C149.142 70.3494 148.761 69.6505 148.5 69.1045C148.446 68.9913 148.394 68.8787 148.345 68.7723C148.281 68.6315 148.221 68.5017 148.167 68.3961C148.075 68.2136 147.964 68.0238 147.802 67.9172C147.096 67.453 145.105 65.3082 144.972 58.8854C144.906 55.686 145.469 53.9181 146.111 52.7616C146.434 52.1806 146.781 51.7461 147.098 51.3484L147.099 51.347L147.108 51.3361C147.417 50.9482 147.713 50.5776 147.895 50.1483C148.152 49.5388 148.664 48.6983 149.209 47.8846C149.752 47.0751 150.317 46.3079 150.671 45.85L150.68 45.8377L150.688 45.8244C151.608 44.2675 152.102 43.6478 152.643 42.9679L152.657 42.9503C153.214 42.2518 153.822 41.4848 154.965 39.6272C155.83 38.2218 156.203 37.2379 156.462 36.3572C156.539 36.0972 156.604 35.8512 156.669 35.6091C156.824 35.0259 156.973 34.4654 157.256 33.7874C157.707 32.7072 158.318 31.975 158.992 31.2942C159.175 31.1091 159.365 30.9257 159.559 30.7389C160.071 30.2454 160.607 29.7284 161.101 29.0952C161.581 28.4787 162.357 28.1557 163.17 28.0135C163.979 27.8718 164.786 27.9166 165.274 28.0004Z" fill="white" stroke="#E2DDDD" stroke-width="0.5"/>
<path d="M167.621 29.7762L167.663 29.7396L167.685 29.6888C168.49 27.8571 169.579 25.0536 170.225 22.5966C170.548 21.3705 170.765 20.2148 170.775 19.3039C170.78 18.849 170.735 18.4384 170.614 18.1054C170.58 18.0121 170.539 17.9235 170.492 17.8413C171.164 18.0489 171.986 18.318 172.667 18.5462C172.437 20.4926 171.98 23.3135 171.327 25.6995C170.989 26.9358 170.602 28.0423 170.173 28.8478C169.959 29.2507 169.74 29.5675 169.519 29.7866C169.299 30.0059 169.093 30.1122 168.903 30.131C168.377 30.1829 168.014 30.1801 167.772 30.147C167.52 30.1125 167.445 30.0515 167.431 30.0351C167.431 30.0296 167.434 30.0158 167.444 29.9923C167.472 29.9309 167.534 29.8521 167.621 29.7762Z" fill="#F9F9F9" stroke="#E2DDDD" stroke-width="0.5"/>
<path d="M167.074 23.015C167.066 23.0198 167.058 23.0248 167.05 23.0299C166.936 23.1043 166.844 23.2113 166.765 23.3148C166.712 23.3854 166.661 23.458 166.608 23.5335C166.492 23.6978 166.368 23.8756 166.184 24.0751C165.677 24.627 164.753 25.291 162.686 25.5672C160.617 25.8436 158.336 25.4725 156.496 25.0071C155.578 24.775 154.775 24.5208 154.17 24.3154C153.867 24.2128 153.614 24.1224 153.42 24.0529C153.406 24.048 153.393 24.0431 153.379 24.0383C153.211 23.978 153.081 23.9314 153.013 23.912C152.541 23.7779 150.355 23.1242 145.242 20.0654C146.109 18.3484 147.944 17.3807 149.706 16.8432C151.528 16.2876 153.206 16.2123 153.468 16.2155C153.73 16.2187 155.215 16.3543 156.932 16.6721C158.655 16.9911 160.557 17.4845 161.681 18.1828C162.006 18.3846 162.317 18.5707 162.616 18.7495C164.412 19.8243 165.769 20.636 167.074 23.015Z" fill="white" stroke="#E2DDDD" stroke-width="0.5"/>
<path d="M140 76.1509C147.547 84.327 168.113 95.7736 190 76.1509" stroke="#FFF9F9" stroke-width="1.5"/>
</g>
<g filter="url(#filter4_d)">
<circle cx="181.509" cy="104.453" r="3.77358" fill="white"/>
<circle cx="181.509" cy="104.453" r="3.52358" stroke="#E2DDDD" stroke-width="0.5"/>
</g>
<defs>
<filter id="filter0_d" x="215.12" y="20" width="52.72" height="64" filterUnits="userSpaceOnUse" color-interpolation-filters="sRGB">
<feFlood flood-opacity="0" result="BackgroundImageFix"/>
<feColorMatrix in="SourceAlpha" type="matrix" values="0 0 0 0 0 0 0 0 0 0 0 0 0 0 0 0 0 0 127 0"/>
<feOffset dy="2"/>
<feGaussianBlur stdDeviation="2"/>
<feColorMatrix type="matrix" values="0 0 0 0 0.020625 0 0 0 0 0.183333 0 0 0 0 0.0857083 0 0 0 1 0"/>
<feBlend mode="normal" in2="BackgroundImageFix" result="effect1_dropShadow"/>
<feBlend mode="normal" in="SourceGraphic" in2="effect1_dropShadow" result="shape"/>
</filter>
<filter id="filter1_d" x="75.12" y="20" width="47.6" height="64" filterUnits="userSpaceOnUse" color-interpolation-filters="sRGB">
<feFlood flood-opacity="0" result="BackgroundImageFix"/>
<feColorMatrix in="SourceAlpha" type="matrix" values="0 0 0 0 0 0 0 0 0 0 0 0 0 0 0 0 0 0 127 0"/>
<feOffset dy="2"/>
<feGaussianBlur stdDeviation="2"/>
<feColorMatrix type="matrix" values="0 0 0 0 0.020625 0 0 0 0 0.183333 0 0 0 0 0.0857083 0 0 0 1 0"/>
<feBlend mode="normal" in2="BackgroundImageFix" result="effect1_dropShadow"/>
<feBlend mode="normal" in="SourceGraphic" in2="effect1_dropShadow" result="shape"/>
</filter>
<filter id="filter2_d" x="5.12" y="20" width="51.84" height="64" filterUnits="userSpaceOnUse" color-interpolation-filters="sRGB">
<feFlood flood-opacity="0" result="BackgroundImageFix"/>
<feColorMatrix in="SourceAlpha" type="matrix" values="0 0 0 0 0 0 0 0 0 0 0 0 0 0 0 0 0 0 127 0"/>
<feOffset dy="2"/>
<feGaussianBlur stdDeviation="2"/>
<feColorMatrix type="matrix" values="0 0 0 0 0.020625 0 0 0 0 0.183333 0 0 0 0 0.0857083 0 0 0 1 0"/>
<feBlend mode="normal" in2="BackgroundImageFix" result="effect1_dropShadow"/>
<feBlend mode="normal" in="SourceGraphic" in2="effect1_dropShadow" result="shape"/>
</filter>
<filter id="filter3_d" x="135.449" y="10" width="59.0518" height="83.7356" filterUnits="userSpaceOnUse" color-interpolation-filters="sRGB">
<feFlood flood-opacity="0" result="BackgroundImageFix"/>
<feColorMatrix in="SourceAlpha" type="matrix" values="0 0 0 0 0 0 0 0 0 0 0 0 0 0 0 0 0 0 127 0"/>
<feOffset dy="2"/>
<feGaussianBlur stdDeviation="2"/>
<feColorMatrix type="matrix" values="0 0 0 0 0.0196078 0 0 0 0 0.184314 0 0 0 0 0.0862745 0 0 0 1 0"/>
<feBlend mode="normal" in2="BackgroundImageFix" result="effect1_dropShadow"/>
<feBlend mode="normal" in="SourceGraphic" in2="effect1_dropShadow" result="shape"/>
</filter>
<filter id="filter4_d" x="173.736" y="96.6792" width="15.5472" height="15.5472" filterUnits="userSpaceOnUse" color-interpolation-filters="sRGB">
<feFlood flood-opacity="0" result="BackgroundImageFix"/>
<feColorMatrix in="SourceAlpha" type="matrix" values="0 0 0 0 0 0 0 0 0 0 0 0 0 0 0 0 0 0 127 0"/>
<feOffset/>
<feGaussianBlur stdDeviation="2"/>
<feColorMatrix type="matrix" values="0 0 0 0 0.0196078 0 0 0 0 0.184314 0 0 0 0 0.0862745 0 0 0 1 0"/>
<feBlend mode="normal" in2="BackgroundImageFix" result="effect1_dropShadow"/>
<feBlend mode="normal" in="SourceGraphic" in2="effect1_dropShadow" result="shape"/>
</filter>
<linearGradient id="paint0_linear" x1="243" y1="0" x2="243" y2="217.2" gradientUnits="userSpaceOnUse">
<stop offset="0.291667" stop-color="#FEFFFF"/>
<stop offset="0.291767" stop-color="#26FA03" stop-opacity="0.93"/>
</linearGradient>
<linearGradient id="paint1_linear" x1="103" y1="0" x2="103" y2="217.2" gradientUnits="userSpaceOnUse">
<stop offset="0.291667" stop-color="#FEFFFF"/>
<stop offset="0.291767" stop-color="#26FA03" stop-opacity="0.93"/>
</linearGradient>
<linearGradient id="paint2_linear" x1="33" y1="0" x2="33" y2="217.2" gradientUnits="userSpaceOnUse">
<stop offset="0.291667" stop-color="#FEFFFF"/>
<stop offset="0.291767" stop-color="#26FA03" stop-opacity="0.93"/>
</linearGradient>
</defs>
</svg>
